<svg width="25" height="25" viewBox="0 0 25 25" fill="none" xmlns="http://www.w3.org/2000/svg">
<path d="M22.7147 10.4601H21.8757V10.4168H12.5007V14.5835H18.3876C17.5288 17.009 15.221 18.7502 12.5007 18.7502C9.04909 18.7502 6.25065 15.9517 6.25065 12.5002C6.25065 9.0486 9.04909 6.25016 12.5007 6.25016C14.0939 6.25016 15.5434 6.8512 16.647 7.83298L19.5934 4.88662C17.7329 3.15277 15.2444 2.0835 12.5007 2.0835C6.74805 2.0835 2.08398 6.74756 2.08398 12.5002C2.08398 18.2528 6.74805 22.9168 12.5007 22.9168C18.2533 22.9168 22.9173 18.2528 22.9173 12.5002C22.9173 11.8017 22.8454 11.12 22.7147 10.4601Z" fill="#FFC107"/>
<path d="M3.28516 7.65172L6.70755 10.1616C7.63359 7.86891 9.8763 6.25016 12.5008 6.25016C14.094 6.25016 15.5435 6.8512 16.6471 7.83297L19.5935 4.88662C17.7331 3.15277 15.2445 2.0835 12.5008 2.0835C8.49974 2.0835 5.02995 4.34235 3.28516 7.65172Z" fill="#FF3D00"/>
<path d="M12.5 22.9165C15.1906 22.9165 17.6354 21.8868 19.4839 20.2124L16.2599 17.4842C15.1789 18.3063 13.8581 18.7509 12.5 18.7499C9.79062 18.7499 7.4901 17.0223 6.62344 14.6113L3.22656 17.2285C4.95052 20.602 8.45156 22.9165 12.5 22.9165Z" fill="#4CAF50"/>
<path d="M22.7141 10.4597H21.875V10.4165H12.5V14.5832H18.387C17.9761 15.7376 17.2361 16.7463 16.2583 17.4847L16.2599 17.4837L19.4839 20.2118C19.2557 20.4191 22.9167 17.7082 22.9167 12.4998C22.9167 11.8014 22.8448 11.1196 22.7141 10.4597Z" fill="#1976D2"/>
</svg>
