<svg width="20" height="16" viewBox="0 0 20 16" fill="none" xmlns="http://www.w3.org/2000/svg">
<path d="M16.9225 1.3297C15.6558 0.70986 14.2844 0.259978 12.8557 4.59862e-05C12.8432 -0.000374507 12.8308 0.00209293 12.8192 0.00727485C12.8077 0.0124568 12.7974 0.0202273 12.7891 0.0300383C12.6176 0.359952 12.4176 0.789839 12.2843 1.11975C10.769 0.879816 9.22803 0.879816 7.71275 1.11975C7.57941 0.779842 7.37941 0.359952 7.19845 0.0300383C7.18893 0.0100436 7.16035 4.59862e-05 7.13178 4.59862e-05C5.70317 0.259978 4.34123 0.70986 3.065 1.3297C3.05548 1.3297 3.04595 1.3397 3.03643 1.34969C0.445883 5.41863 -0.268423 9.37759 0.0839681 13.2966C0.0839681 13.3166 0.0934922 13.3366 0.11254 13.3466C1.82687 14.6662 3.47454 15.466 5.10315 15.9959C5.13173 16.0059 5.1603 15.9959 5.16982 15.9759C5.55078 15.426 5.89365 14.8462 6.1889 14.2363C6.20795 14.1963 6.1889 14.1563 6.1508 14.1463C5.60793 13.9264 5.09363 13.6665 4.58885 13.3665C4.55076 13.3466 4.55076 13.2866 4.57933 13.2566C4.68409 13.1766 4.78886 13.0866 4.89362 13.0066C4.91267 12.9866 4.94124 12.9866 4.96029 12.9966C8.23657 14.5662 11.77 14.5662 15.0082 12.9966C15.0272 12.9866 15.0558 12.9866 15.0749 13.0066C15.1796 13.0966 15.2844 13.1766 15.3891 13.2666C15.4272 13.2966 15.4272 13.3565 15.3796 13.3765C14.8844 13.6865 14.3605 13.9364 13.8177 14.1563C13.7796 14.1663 13.7701 14.2163 13.7796 14.2463C14.0844 14.8562 14.4272 15.436 14.7987 15.9859C14.8272 15.9959 14.8558 16.0059 14.8844 15.9959C16.5225 15.466 18.1702 14.6662 19.8845 13.3466C19.9036 13.3366 19.9131 13.3166 19.9131 13.2966C20.3321 8.76775 19.2178 4.83878 16.9606 1.34969C16.9511 1.3397 16.9416 1.3297 16.9225 1.3297ZM6.68415 10.9072C5.70317 10.9072 4.8841 9.95744 4.8841 8.78775C4.8841 7.61805 5.68412 6.6683 6.68415 6.6683C7.6937 6.6683 8.49372 7.62805 8.4842 8.78775C8.4842 9.95744 7.68418 10.9072 6.68415 10.9072ZM13.3224 10.9072C12.3414 10.9072 11.5224 9.95744 11.5224 8.78775C11.5224 7.61805 12.3224 6.6683 13.3224 6.6683C14.332 6.6683 15.132 7.62805 15.1225 8.78775C15.1225 9.95744 14.332 10.9072 13.3224 10.9072Z" fill="white"/>
</svg>
